<svg xmlns="http://www.w3.org/2000/svg" fill="none" viewBox="0 0 52 52"><g clip-path="url(#a)"><path fill="#000" d="M51.949 37.143c-.296-3.044-1.855-5.815-4.39-7.802a14.2 14.2 0 0 0-3.312-1.917V13.696a.81.81 0 0 0-.407-.703L22.53.688a.81.81 0 0 0-.813 0L.407 12.993a.81.81 0 0 0-.407.703v24.608a.81.81 0 0 0 .406.703l21.311 12.304a.81.81 0 0 0 .813 0l21.31-12.304a.8.8 0 0 0 .355-.423 5.9 5.9 0 0 1 1.12 2.362c.67 3.122-1.35 6.157-5.27 7.921a.813.813 0 0 0 .49 1.538c3.762-.738 6.84-2.488 8.903-5.06 1.902-2.372 2.794-5.285 2.51-8.202M22.123 25.062l-5.94-3.43 19.686-11.366 5.94 3.43zm-12.12-6.998L29.689 6.698l4.555 2.63-19.686 11.366zm3.743 4.037v7.814l-4.556-2.63v-7.814zm8.377-19.77 5.94 3.43L8.379 17.125l-5.94-3.43zM1.625 15.104l5.94 3.43v9.22a.81.81 0 0 0 .407.704l6.18 3.568a.813.813 0 0 0 1.219-.704V23.04l5.94 3.43V49.2L1.625 37.835zM22.935 49.2V26.47l19.687-11.366v11.74c-1.69-.51-3.555-.802-5.56-.863v-2.628a.812.812 0 0 0-1.333-.623l-9.393 7.862a.812.812 0 0 0 .04 1.278l9.394 6.891a.812.812 0 0 0 1.293-.655v-2.731c2.152.115 4.042.694 5.504 1.691l.055.04v.729zm22.457-2.388a9 9 0 0 0 .55-.808c1.023-1.699 1.355-3.566.962-5.399-.414-1.926-1.629-3.66-3.422-4.882-1.914-1.305-4.415-1.995-7.232-1.995a.81.81 0 0 0-.812.813v1.962l-7.265-5.33 7.265-6.08v1.688a.81.81 0 0 0 .812.812c9.697 0 13.646 5.23 14.081 9.707.32 3.282-1.175 7.105-4.94 9.512"/></g><defs><clipPath id="a"><path fill="#fff" d="M0 0h52v52H0z"/></clipPath></defs></svg>