<svg xmlns="http://www.w3.org/2000/svg" fill="none" viewBox="0 0 52 45"><path fill="#000" d="M2.712 23.149a23.06 23.06 0 0 1 6.374-13.53l3.93 3.93 1.82-1.819-3.86-3.858a23.06 23.06 0 0 1 13.459-5.265v6.395h2.572V2.607a23.05 23.05 0 0 1 13.458 5.265l-3.704 3.703 1.82 1.818 3.775-3.775a23.06 23.06 0 0 1 6.373 13.53h-5.41v2.573h5.55a23.02 23.02 0 0 1-5.28 14.695l-4.398-4.398-1.82 1.819 4.473 4.471-.017.016 1.789 1.848a25.63 25.63 0 0 0 7.825-18.464C51.442 11.51 39.926 0 25.722 0S0 11.51 0 25.708a25.62 25.62 0 0 0 7.446 18.088l1.826-1.81-.024-.025 3.866-3.865-1.82-1.818-3.753 3.753a23.02 23.02 0 0 1-4.969-14.31h5.212v-2.572z"/><path fill="#000" fill-rule="evenodd" d="M40.486 29.092 22.532 30.75a2.06 2.06 0 0 0-1.252.769l-2.106 3.125c-.235 1.56-.068 2.18.854 3.189l3.387 1.651c.468.193.99.206 1.468.041l16.353-7.551c2.432-.845 1.781-3.366-.749-2.88zm-16.285 7.914 10.358-4.784L23.2 33.27l-1.546 2.292a2 2 0 0 0-.004.2z" clip-rule="evenodd"/></svg>