<svg xmlns="http://www.w3.org/2000/svg" fill="none" viewBox="0 0 41 41"><path fill="#fff" d="M22.927 21.253c-.42-.154-.42-.74-.446-1.15-.106-1.455.42-3.677-.21-4.622-.447-.563-2.603-.511-3.917-.434-.369.051-.815.127-1.13.28-.316.155-.631.41-.631.64 0 .331.789.28 1.077.714.315.46.315 1.456.315 2.274 0 .945-.158 2.197-.551 2.248-.605.025-.947-.563-1.262-.997a17 17 0 0 1-1.735-2.912c-.237-.537-.369-1.124-.71-1.354-.526-.358-1.472-.383-2.392-.358-.841.025-2.051-.077-2.287.409-.185.536.21 1.047.42 1.482 1.078 2.273 2.234 4.266 3.654 6.156 1.315 1.762 2.55 3.167 4.968 3.908.684.204 3.68.792 4.285 0 .21-.307.158-.997.263-1.508.105-.51.236-1.021.736-1.047.42-.025.657.332.92.588.29.281.526.51.736.767.5.485 1.025 1.149 1.656 1.405.867.358 2.208.256 3.47.204 1.025-.025 1.761-.23 1.84-.817.053-.46-.473-1.124-.789-1.508-.789-.944-1.156-1.226-2.05-2.095-.395-.383-.895-.792-.895-1.251-.026-.281.21-.536.421-.817.92-1.329 1.84-2.274 2.682-3.653.236-.41.789-1.354.578-1.814-.236-.511-1.55-.358-2.366-.358-1.051 0-2.418-.077-2.681.127-.5.332-.71.87-.947 1.38-.525 1.175-1.235 2.375-1.971 3.27-.264.306-.762.945-1.052.842z"/><circle cx="20.5" cy="20.5" r="20.5" fill="#fff" fill-opacity=".1"/></svg>