<svg xmlns="http://www.w3.org/2000/svg" fill="none" viewBox="-22 0 312 79"><path fill="#fff" d="M215.84 24.068c9.073-.953 8.412 8.346 8.129 14.411-.293 6.236 2.065 13.554-5.874 15.574-9.835 1.253-8.374-9.588-8.287-15.777.081-5.784-1.547-12.66 6.032-14.208m.41 4.159c-.83.364-1.597.69-1.961 1.586-.534 1.318-.507 17.417.074 18.684.289.627.869.997 1.506 1.209.498.164 1.079.199 1.603.192.767-.312 1.635-.656 1.986-1.476.518-1.208.52-17.569-.005-18.71-.303-.657-.885-1.091-1.561-1.311-.528-.173-1.091-.176-1.642-.174M188.766 24.22c4.831-.005 12.193-1.044 13.433 5.21.721 3.62.594 6.576-2.555 8.855.377.264 1.091.756 1.357 1.086 2.199 2.731 1.769 7.967.544 11.015-2.445 4.452-8.398 3.521-12.781 3.495zm4.25 15.932.002 9.471c1.79.018 3.257.243 4.654-.96.763-1.286.756-1.924.815-3.334.195-4.785-1.148-5.267-5.471-5.178m3.72-11.452c-1.245-.643-2.373-.507-3.718-.483l.002 8.173c1.736.018 3.3.242 4.669-.914 1.171-2.122 1.532-5.492-.953-6.776"/><path fill="#fff" fill-rule="evenodd" d="M231.365 24.223c2.753-.006 5.838-.15 8.542.17 5.91.698 6.766 8.624 4.818 13.028-.63 1.42-1.507 2.11-2.743 2.958l4.547 13.51h-4.46l-1.092-3.52a650 650 0 0 1-2.836-9.135h-2.569l-.002 12.656-4.212-.008zm4.207 3.998-.002 9.242c1.742.028 3.602.282 4.987-.815 1.099-1.797 1.482-6.601-.55-7.934-.929-.61-3.279-.51-4.435-.493" clip-rule="evenodd"/><path fill="#fff" d="m253.217 24.22 4.059.001 4.117 11.588c.515 1.447 1.696 5.019 2.34 6.156l-.004-17.744 4.227.005-.004 29.662-3.953-.002-6.521-17.974c-.174 5.759-.035 12.167-.033 17.974l-4.23-.002z"/><path fill="#fff" fill-rule="evenodd" d="M0 25.025c2.657-.003 5.27-.12 7.91.176 5.821.652 7.183 8.128 4.649 12.4-.32.539-1.173 1.112-1.696 1.479 1.084.73 1.82 1.378 2.278 2.643 1.017 2.806.737 6.824-.408 9.537C10.105 55.663 4.486 54.716 0 54.69zM4.215 40.96l.009 9.47c1.713.018 3.2.221 4.597-.86 1.162-1.762 1.572-6.675-.43-8.1-.902-.643-3.022-.53-4.176-.51m.002-11.936.007 8.173c1.62.013 3.28.208 4.61-.81 1.224-1.973 1.658-5.468-.684-6.775-1.36-.758-2.44-.606-3.933-.588" clip-rule="evenodd"/><path fill="#fff" d="M29.656 25.027c2.437 9.465 4.335 20.021 6.65 29.671l-4.238-.007c-.262-1.123-1.04-6.192-1.512-6.78l-.304.18-6.457 6.597-4.242-.005c.801-3.133 1.539-6.86 2.254-10.068l4.35-19.592zm-1.793 8.633c-1.123 5.014-1.956 10.353-3.006 15.425l1.256-1.294 3.795-4.007c-.345-1.819-1.53-8.703-2.045-10.124M94.84 25.023l12.626.006-.005 3.996-8.395-.004.004 8.704 7.294.001-.007 3.998-7.291-.001v5.818l.004 2.886 8.395.001-.002 4.261-12.623-.004zM75.376 25.023l4.242.005-.007 25.4h8.386l-.017 4.263c-4.172-.047-8.426-.005-12.605-.006zM55.856 25.023l13.066.005-.005 3.996-4.887-.004.002 20.957v4.713l-4.207-.008V29.024h-3.97zM39.27 25.023l13.067.006-.003 3.995-3.975-.003.001 21.653.002 4.017-4.199-.005V29.025l-4.895-.001zM151.953 25.878c4.574-.087 9.452.995 12.46 4.777 1.667 2.148 2.097 4.83 1.746 7.467-.436 3.28-1.927 5.452-4.485 7.426 9.965 5.171 9.258 18.094-1.074 22.373-3.225 1.335-6.422 1.036-9.873 1.022l-.002-3.365c.218-.143 3.138-.141 3.638-.094 8.349.78 14.664-8.31 8.457-14.963-3.017-3.234-7.08-2.958-11.343-2.924l-.001-3.463a81 81 0 0 1 3.214-.028c4.576.016 8.173-2.81 8.156-7.603-.02-5.77-6.203-7.222-10.893-7.19zM146.108.065c.685-.044 2.924-.21 3.112.25.458 1.115 2.239 2.434 1.7 3.865-.389 1.032-.74 1.505-1.456 1.907l.006 8.969 5.23-.005c0 .99.222 2.257-.68 2.84-.52-.012-.455-.087-.962-.438l-2.644-.023c-.045 1.536-.187 13.04-.586 13.535l-.512.021-4.267.002-.465-13.557-2.664.024-.585.44c-.444.014-.269.063-.655-.205-.448-.75-.35-1.764-.34-2.638l5.209-.001V6.09c-2.06-1.208-1.724-3.713-.193-5.011.168-.143.365-.658.752-1.015M133.394 34.11c.048.012.148.102.194.14.105.815.042 2.815.037 3.718-1.448 1.5-1.447 3.939-.026 5.312 1.911 1.848 7.623 1.224 10.2 1.212l-.003 3.453c-1.65-.01-7.371-.083-8.692.197a6 6 0 0 0-2.243.988 4.44 4.44 0 0 0-1.813 2.953c-.217 1.441.309 2.699 1.149 3.826.56.551.769.685 1.43 1.102l-.004 3.694c-1.815-.582-3.364-1.552-4.487-3.114a8.47 8.47 0 0 1-1.465-6.22c.411-2.487 1.76-4.017 3.725-5.437-2.773-2.778-3.328-7.286-.378-10.23.745-.744 1.446-1.106 2.376-1.595"/><path fill="#fff" d="m135.839 50.209 3.431.002-.001 15.28 5.187-.005-.001 3.459-11.421-.001c-2.519-.044-3.427-.368-5.408 1.216.36-1.621.375-1.897 1.658-2.923-1.335-1.014-1.381-1.32-1.817-2.891 1.426 1.234 2.293 1.178 4.138 1.166l4.235-.03zM127.553 25.25c1.63.934 4.486.641 6.395.639l9.303-.016-.001 3.43-3.982-.005.001 10.875-.001 2.074-3.43.001q.033-6.474.001-12.95a430 430 0 0 0-6.347.023c-.765.01-1.515.4-1.867.3-.179-1.006.93-1.544 1.421-2.003-.207-.69-1.148-.363-1.493-2.368"/><path fill="#fff" d="m152.68 49.828 3.465.001-.001 7.878c1.845.029 2.713.194 4.38-.645-.537 1.3-.675 1.484-1.751 2.39.766.553 1.85 1.479 1.328 2.513-.35-.158-1.073-.658-1.329-.68-2.059-.183-4.733-.103-6.783-.101-3.48-.04-7.027-.002-10.513.002l-.003-3.483q5.603.034 11.207 0zM160.197 32.719l.053.044c.18.763-.794 1.722-1.347 2.168.582.4 1.66 1.426 1.379 2.178-.402.042-.614-.185-1.021-.426-.978-.04-2.129-.016-3.12-.021l.002 5.2-3.465.002.001-5.2-3.816-.004-7.386.004-.006-3.478q5.622.066 11.242.018c1.854 0 5.958.247 7.484-.485"/><path fill="#fff" d="m145.312 38.88 4.425-.001c-.299 5.317-.339 10.937-.56 16.305l-.025.153c-.375.317-2.671.182-3.313.174-.163-5.497-.437-11.146-.527-16.63M146.133 63.389h2.791l-.425 9.545c-.069 1.695-.101 3.697-.265 5.368-.233.324-.266.382-.639.547-.619-.05-.771-.516-.822-1.076-.151-1.682-.18-3.388-.255-5.078a672 672 0 0 1-.385-9.306"/></svg>